<?xml version="1.0" encoding="UTF-8" standalone="no"?>
<!-- Created with Inkscape (http://www.inkscape.org/) -->

<svg
   width="171mm"
   height="171mm"
   viewBox="0 0 171 171"
   version="1.1"
   id="svg1"
   xml:space="preserve"
   inkscape:version="1.4.4 (dcaf3e7d9e, 2026-05-05)"
   sodipodi:docname="squire_large.svg"
   xmlns:inkscape="http://www.inkscape.org/namespaces/inkscape"
   xmlns:sodipodi="http://sodipodi.sourceforge.net/DTD/sodipodi-0.dtd"
   xmlns="http://www.w3.org/2000/svg"
   xmlns:svg="http://www.w3.org/2000/svg"><sodipodi:namedview
     id="namedview1"
     pagecolor="#ffffff"
     bordercolor="#000000"
     borderopacity="0.25"
     inkscape:showpageshadow="2"
     inkscape:pageopacity="0.0"
     inkscape:pagecheckerboard="0"
     inkscape:deskcolor="#d1d1d1"
     inkscape:document-units="mm"
     inkscape:zoom="0.82933723"
     inkscape:cx="226.08415"
     inkscape:cy="254.42003"
     inkscape:window-width="2560"
     inkscape:window-height="1283"
     inkscape:window-x="0"
     inkscape:window-y="0"
     inkscape:window-maximized="1"
     inkscape:current-layer="layer1" /><defs
     id="defs1" /><g
     inkscape:label="Layer 1"
     inkscape:groupmode="layer"
     id="layer1"><path
       style="fill:#ffffff;fill-opacity:1;stroke:#000000;stroke-width:3.61847;stroke-linecap:round;stroke-linejoin:round"
       d="M 53.317115,125.92232 38.039045,151.48937 21.487801,177.0564 H 99.151327 L 91.512291,155.32441 101.69767,143.81925 86.419599,134.87079 Z"
       id="path6"
       sodipodi:nodetypes="cccccccc" /><path
       style="fill:#ffffff;fill-opacity:1;stroke:#000000;stroke-width:3.61847;stroke-linecap:round;stroke-linejoin:round"
       d="m 128.5049,52.752724 9.6e-4,31.661928 13.93265,12.189761 -10.71935,4.351267 2.32126,11.8087 -8.82826,6.24333 -0.59794,14.58473 -30.555648,-11.50518 -12.731724,17.89693 -6.365862,26.8454 -5.092692,-15.34022 -14.004896,-16.61858 v -8.94847 L 31.866169,46.852746 123.28591,37.373677 Z"
       id="path4"
       sodipodi:nodetypes="cccccccccccccccc" /><path
       style="fill:#ffffff;fill-opacity:1;stroke:#000000;stroke-width:3.61847;stroke-linecap:round;stroke-linejoin:round"
       d="M 54.590288,91.406809 68.595186,74.788232 85.146426,101.63363 99.151327,76.066591 90.239119,47.942844 128.4343,50.499548 152.62457,62.004716 158.99044,40.272732 143.71236,18.540746 56.500046,5.1180505 26.58049,15.984044 11.30242,39.633555 7.4829023,76.066591 l 9.5487957,53.690789 47.364442,-5.9398 0.675201,-11.99591 z"
       id="path5"
       sodipodi:nodetypes="ccccccccccccccccc" /><path
       style="fill:none;stroke:#000000;stroke-width:3.61847;stroke-linecap:round;stroke-linejoin:round"
       d="M 116.72112,63.65749 V 86.293405"
       id="path7"
       sodipodi:nodetypes="cc" /><path
       style="fill:#ffffff;fill-opacity:1;stroke:#000000;stroke-width:3.61847;stroke-linecap:round;stroke-linejoin:round"
       d="m 65.267828,111.82738 14.629373,0.67793"
       id="path8" /></g></svg>
