<?xml version="1.0" encoding="UTF-8" standalone="no"?>
<!-- Created with Inkscape (http://www.inkscape.org/) -->

<svg
   width="25mm"
   height="25mm"
   viewBox="0 0 25 25"
   version="1.1"
   id="svg1"
   xml:space="preserve"
   inkscape:version="1.4.4 (dcaf3e7d9e, 2026-05-05)"
   sodipodi:docname="squire.svg"
   xmlns:inkscape="http://www.inkscape.org/namespaces/inkscape"
   xmlns:sodipodi="http://sodipodi.sourceforge.net/DTD/sodipodi-0.dtd"
   xmlns="http://www.w3.org/2000/svg"
   xmlns:svg="http://www.w3.org/2000/svg"><sodipodi:namedview
     id="namedview1"
     pagecolor="#ffffff"
     bordercolor="#000000"
     borderopacity="0.25"
     inkscape:showpageshadow="2"
     inkscape:pageopacity="0.0"
     inkscape:pagecheckerboard="0"
     inkscape:deskcolor="#d1d1d1"
     inkscape:document-units="mm"
     inkscape:zoom="8.0223621"
     inkscape:cx="45.934102"
     inkscape:cy="43.503397"
     inkscape:window-width="2560"
     inkscape:window-height="1283"
     inkscape:window-x="0"
     inkscape:window-y="0"
     inkscape:window-maximized="1"
     inkscape:current-layer="layer1" /><defs
     id="defs1" /><g
     inkscape:label="Layer 1"
     inkscape:groupmode="layer"
     id="layer1"><path
       style="fill:#ffffff;stroke:#000000;stroke-width:1;stroke-linecap:round;stroke-linejoin:round;fill-opacity:1;stroke-dasharray:none"
       d="M 8.208955,18.283582 5.9701493,22.014925 3.5447761,25.746268 H 14.925373 l -1.119403,-3.171642 1.492537,-1.679104 -2.238806,-1.30597 z"
       id="path6"
       sodipodi:nodetypes="cccccccc" /><path
       style="fill:#ffffff;stroke:#000000;stroke-width:1;stroke-linecap:round;stroke-linejoin:round;fill-opacity:1;stroke-dasharray:none"
       d="m 19.226764,7.6049557 2.36e-4,4.6208523 2.041653,1.779017 -1.570786,0.635039 0.340153,1.723402 -1.293682,0.911173 -0.08762,2.128546 -4.477612,-1.679105 -1.865671,2.611941 -0.932836,3.91791 -0.746269,-2.238806 -2.0522385,-2.425373 v -1.30597 L 5.0655932,6.7438923 18.461987,5.360484 Z"
       id="path4"
       sodipodi:nodetypes="cccccccccccccccc" /><path
       style="fill:#ffffff;fill-opacity:1;stroke:#000000;stroke-width:1;stroke-linecap:round;stroke-linejoin:round;stroke-dasharray:none"
       d="m 8.3955222,13.246268 2.0522388,-2.425373 2.425373,3.917911 2.052239,-3.731343 -1.30597,-4.1044781 5.597015,0.3731345 3.544776,1.6791042 L 23.69403,5.783582 21.455224,2.6119403 8.6753729,0.65298507 4.2910447,2.238806 2.0522388,5.6902984 1.4925373,11.007463 l 1.3992537,7.83582 6.9406536,-0.866874 0.098942,-1.750725 z"
       id="path5"
       sodipodi:nodetypes="ccccccccccccccccc" /><path
       style="fill:none;stroke:#000000;stroke-width:1;stroke-linecap:round;stroke-linejoin:round;stroke-dasharray:none"
       d="M 17.5,9.1964352 V 12.5"
       id="path7"
       sodipodi:nodetypes="cc" /><path
       style="fill:#ffffff;fill-opacity:1;stroke:#000000;stroke-width:1;stroke-linecap:round;stroke-linejoin:round;stroke-dasharray:none"
       d="m 9.9601794,16.226517 2.1437476,0.09894"
       id="path8" /></g></svg>
